<svg width="243" height="309" viewBox="0 0 243 309" fill="none" xmlns="http://www.w3.org/2000/svg">
<rect width="243" height="309" rx="30" fill="black"/>
<path d="M45.8115 109.24L39.5315 120.54H41.6515C42.7048 120.54 43.5248 120.233 44.1115 119.62C44.7115 118.993 45.1315 117.947 45.3715 116.48H45.8315C45.7915 116.973 45.7715 117.6 45.7715 118.36C45.7715 119.133 45.8182 120.013 45.9115 121C44.9915 120.96 43.4182 120.94 41.1915 120.94C38.8982 120.94 37.2248 120.96 36.1715 121V120.6L42.4515 109.3H40.3515C39.3382 109.3 38.5448 109.593 37.9715 110.18C37.3982 110.753 36.9915 111.733 36.7515 113.12H36.2915C36.3315 112.693 36.3515 112.107 36.3515 111.36C36.3515 110.613 36.3048 109.773 36.2115 108.84C37.2115 108.88 38.8848 108.9 41.2315 108.9C43.3382 108.9 44.8648 108.88 45.8115 108.84V109.24ZM57.9735 118.4C57.9735 119.16 58.0202 120.027 58.1135 121C57.2468 120.96 55.7868 120.94 53.7335 120.94C50.9868 120.94 48.9202 120.96 47.5335 121V120.6C47.9868 120.573 48.3135 120.52 48.5135 120.44C48.7135 120.36 48.8468 120.207 48.9135 119.98C48.9935 119.753 49.0335 119.387 49.0335 118.88V110.96C49.0335 110.453 48.9935 110.087 48.9135 109.86C48.8468 109.633 48.7068 109.48 48.4935 109.4C48.2935 109.32 47.9735 109.267 47.5335 109.24V108.84C48.9202 108.88 50.9868 108.9 53.7335 108.9C55.6002 108.9 56.9268 108.88 57.7135 108.84C57.6202 109.733 57.5735 110.533 57.5735 111.24C57.5735 111.76 57.5935 112.173 57.6335 112.48H57.1735C56.9735 111.333 56.6268 110.52 56.1335 110.04C55.6402 109.547 54.9602 109.3 54.0935 109.3H53.3535C53.0068 109.3 52.7468 109.333 52.5735 109.4C52.4002 109.453 52.2735 109.573 52.1935 109.76C52.1268 109.933 52.0935 110.213 52.0935 110.6V114.68H53.0335C53.6468 114.68 54.1068 114.467 54.4135 114.04C54.7335 113.6 54.9468 113.093 55.0535 112.52H55.5135C55.4735 112.973 55.4535 113.493 55.4535 114.08V114.88C55.4535 115.48 55.4935 116.267 55.5735 117.24H55.1135C55.0202 116.613 54.8068 116.1 54.4735 115.7C54.1535 115.287 53.6735 115.08 53.0335 115.08H52.0935V119.24C52.0935 119.627 52.1268 119.913 52.1935 120.1C52.2735 120.273 52.4002 120.393 52.5735 120.46C52.7468 120.513 53.0068 120.54 53.3535 120.54H54.2135C55.1602 120.54 55.9002 120.267 56.4335 119.72C56.9802 119.173 57.3602 118.253 57.5735 116.96H58.0335C57.9935 117.333 57.9735 117.813 57.9735 118.4ZM72.261 109.24C71.821 109.307 71.4943 109.407 71.281 109.54C71.081 109.673 70.941 109.887 70.861 110.18C70.7943 110.473 70.761 110.92 70.761 111.52V121.04L70.221 121.02L69.701 121.04L61.701 111.1V118.32C61.701 118.907 61.7543 119.353 61.861 119.66C61.9677 119.953 62.161 120.167 62.441 120.3C62.721 120.433 63.161 120.533 63.761 120.6V121C63.161 120.96 62.401 120.94 61.481 120.94C60.7477 120.94 60.1677 120.96 59.741 121V120.6C60.181 120.533 60.501 120.433 60.701 120.3C60.9143 120.167 61.0543 119.953 61.121 119.66C61.201 119.367 61.241 118.92 61.241 118.32V110.96C61.241 110.453 61.201 110.087 61.121 109.86C61.0543 109.633 60.9143 109.48 60.701 109.4C60.501 109.32 60.181 109.267 59.741 109.24V108.84C60.1677 108.88 60.7477 108.9 61.481 108.9C62.4277 108.9 63.241 108.88 63.921 108.84L70.301 116.76V111.52C70.301 110.933 70.2477 110.493 70.141 110.2C70.0343 109.893 69.8343 109.673 69.541 109.54C69.261 109.407 68.8277 109.307 68.241 109.24V108.84C68.8277 108.88 69.5877 108.9 70.521 108.9C71.2677 108.9 71.8477 108.88 72.261 108.84V109.24ZM79.492 109.24C79.0386 109.267 78.712 109.32 78.512 109.4C78.312 109.48 78.172 109.633 78.092 109.86C78.0253 110.087 77.992 110.453 77.992 110.96V118.88C77.992 119.387 78.0253 119.753 78.092 119.98C78.172 120.207 78.312 120.36 78.512 120.44C78.712 120.52 79.0386 120.573 79.492 120.6V121C78.812 120.96 77.8253 120.94 76.532 120.94C75.132 120.94 74.0986 120.96 73.432 121V120.6C73.8853 120.573 74.212 120.52 74.412 120.44C74.612 120.36 74.7453 120.207 74.812 119.98C74.892 119.753 74.932 119.387 74.932 118.88V110.96C74.932 110.453 74.892 110.087 74.812 109.86C74.7453 109.633 74.6053 109.48 74.392 109.4C74.192 109.32 73.872 109.267 73.432 109.24V108.84C74.0853 108.88 75.1186 108.9 76.532 108.9C77.8253 108.9 78.812 108.88 79.492 108.84V109.24ZM92.5938 108.84C92.5005 109.853 92.4538 110.76 92.4538 111.56C92.4538 112.307 92.4738 112.893 92.5138 113.32H92.0538C91.8672 112.307 91.6405 111.513 91.3738 110.94C91.1205 110.367 90.7872 109.953 90.3738 109.7C89.9738 109.433 89.4538 109.3 88.8138 109.3H88.1938V118.68C88.1938 119.24 88.2472 119.647 88.3538 119.9C88.4605 120.153 88.6472 120.327 88.9138 120.42C89.1805 120.513 89.6138 120.573 90.2138 120.6V121C89.4938 120.96 88.2938 120.94 86.6138 120.94C84.9205 120.94 83.7538 120.96 83.1138 121V120.6C83.7138 120.573 84.1472 120.513 84.4138 120.42C84.6805 120.327 84.8672 120.153 84.9738 119.9C85.0805 119.647 85.1338 119.24 85.1338 118.68V109.3H84.5138C83.8738 109.3 83.3472 109.433 82.9338 109.7C82.5338 109.953 82.2005 110.367 81.9338 110.94C81.6805 111.513 81.4605 112.307 81.2738 113.32H80.8138C80.8538 112.893 80.8738 112.307 80.8738 111.56C80.8738 110.76 80.8272 109.853 80.7338 108.84C81.8938 108.88 83.8538 108.9 86.6138 108.9C89.4272 108.9 91.4205 108.88 92.5938 108.84ZM108.102 109.24C107.649 109.267 107.322 109.32 107.122 109.4C106.922 109.48 106.782 109.633 106.702 109.86C106.635 110.087 106.602 110.453 106.602 110.96V118.88C106.602 119.387 106.635 119.753 106.702 119.98C106.782 120.207 106.922 120.36 107.122 120.44C107.335 120.52 107.662 120.573 108.102 120.6V121C107.489 120.96 106.515 120.94 105.182 120.94C103.835 120.94 102.789 120.96 102.042 121V120.6C102.495 120.573 102.822 120.52 103.022 120.44C103.222 120.36 103.355 120.207 103.422 119.98C103.502 119.753 103.542 119.387 103.542 118.88V115H98.4021V118.88C98.4021 119.387 98.4354 119.753 98.5021 119.98C98.5821 120.207 98.7221 120.36 98.9221 120.44C99.1354 120.52 99.4621 120.573 99.9021 120.6V121C99.1688 120.96 98.1221 120.94 96.7621 120.94C95.4554 120.94 94.4821 120.96 93.8421 121V120.6C94.2954 120.573 94.6221 120.52 94.8221 120.44C95.0221 120.36 95.1554 120.207 95.2221 119.98C95.3021 119.753 95.3421 119.387 95.3421 118.88V110.96C95.3421 110.453 95.3021 110.087 95.2221 109.86C95.1554 109.633 95.0154 109.48 94.8021 109.4C94.6021 109.32 94.2821 109.267 93.8421 109.24V108.84C94.4821 108.88 95.4554 108.9 96.7621 108.9C98.1221 108.9 99.1688 108.88 99.9021 108.84V109.24C99.4488 109.267 99.1221 109.32 98.9221 109.4C98.7221 109.48 98.5821 109.633 98.5021 109.86C98.4354 110.087 98.4021 110.453 98.4021 110.96V114.6H103.542V110.96C103.542 110.453 103.502 110.087 103.422 109.86C103.355 109.633 103.215 109.48 103.002 109.4C102.802 109.32 102.482 109.267 102.042 109.24V108.84C102.789 108.88 103.835 108.9 105.182 108.9C106.515 108.9 107.489 108.88 108.102 108.84V109.24ZM120.715 108.56C121.488 108.56 122.115 108.673 122.595 108.9C123.075 109.113 123.568 109.433 124.075 109.86C124.222 109.98 124.348 110.04 124.455 110.04C124.722 110.04 124.895 109.64 124.975 108.84H125.435C125.382 109.64 125.355 111.04 125.355 113.04H124.895C124.762 112.32 124.628 111.8 124.495 111.48C124.362 111.147 124.162 110.813 123.895 110.48C123.522 110.04 123.095 109.7 122.615 109.46C122.148 109.207 121.662 109.08 121.155 109.08C120.422 109.08 119.782 109.32 119.235 109.8C118.688 110.267 118.262 110.94 117.955 111.82C117.662 112.7 117.515 113.747 117.515 114.96C117.515 116.187 117.675 117.24 117.995 118.12C118.328 118.987 118.782 119.647 119.355 120.1C119.928 120.54 120.575 120.76 121.295 120.76C121.815 120.76 122.322 120.64 122.815 120.4C123.322 120.147 123.755 119.8 124.115 119.36C124.382 119.027 124.575 118.667 124.695 118.28C124.815 117.893 124.928 117.333 125.035 116.6H125.495C125.495 118.693 125.522 120.16 125.575 121H125.115C125.075 120.587 125.015 120.287 124.935 120.1C124.855 119.9 124.748 119.8 124.615 119.8C124.508 119.8 124.375 119.86 124.215 119.98C123.722 120.393 123.208 120.713 122.675 120.94C122.142 121.167 121.502 121.28 120.755 121.28C119.488 121.28 118.368 121.033 117.395 120.54C116.422 120.047 115.662 119.333 115.115 118.4C114.582 117.467 114.315 116.347 114.315 115.04C114.315 113.773 114.595 112.647 115.155 111.66C115.715 110.673 116.475 109.913 117.435 109.38C118.408 108.833 119.502 108.56 120.715 108.56ZM138.04 119.32C138.426 120.147 138.846 120.573 139.3 120.6V121C138.66 120.96 137.786 120.94 136.68 120.94C135.253 120.94 134.2 120.96 133.52 121V120.6C133.96 120.573 134.286 120.507 134.5 120.4C134.713 120.28 134.82 120.087 134.82 119.82C134.82 119.58 134.733 119.28 134.56 118.92L133.56 116.64H129.36L129.12 117.18C128.746 118.06 128.56 118.747 128.56 119.24C128.56 119.693 128.706 120.027 129 120.24C129.293 120.453 129.726 120.573 130.3 120.6V121C129.54 120.96 128.773 120.94 128 120.94C127.28 120.94 126.74 120.96 126.38 121V120.6C126.7 120.533 126.993 120.333 127.26 120C127.54 119.653 127.833 119.14 128.14 118.46L132.36 108.8C132.466 108.813 132.62 108.82 132.82 108.82C133.033 108.82 133.186 108.813 133.28 108.8L138.04 119.32ZM133.38 116.24L131.46 111.86L129.54 116.24H133.38ZM152.359 109.24C151.919 109.307 151.592 109.407 151.379 109.54C151.179 109.673 151.039 109.887 150.959 110.18C150.892 110.473 150.859 110.92 150.859 111.52V121.04L150.319 121.02L149.799 121.04L141.799 111.1V118.32C141.799 118.907 141.852 119.353 141.959 119.66C142.065 119.953 142.259 120.167 142.539 120.3C142.819 120.433 143.259 120.533 143.859 120.6V121C143.259 120.96 142.499 120.94 141.579 120.94C140.845 120.94 140.265 120.96 139.839 121V120.6C140.279 120.533 140.599 120.433 140.799 120.3C141.012 120.167 141.152 119.953 141.219 119.66C141.299 119.367 141.339 118.92 141.339 118.32V110.96C141.339 110.453 141.299 110.087 141.219 109.86C141.152 109.633 141.012 109.48 140.799 109.4C140.599 109.32 140.279 109.267 139.839 109.24V108.84C140.265 108.88 140.845 108.9 141.579 108.9C142.525 108.9 143.339 108.88 144.019 108.84L150.399 116.76V111.52C150.399 110.933 150.345 110.493 150.239 110.2C150.132 109.893 149.932 109.673 149.639 109.54C149.359 109.407 148.925 109.307 148.339 109.24V108.84C148.925 108.88 149.685 108.9 150.619 108.9C151.365 108.9 151.945 108.88 152.359 108.84V109.24ZM164.355 109.24C163.902 109.267 163.575 109.32 163.375 109.4C163.175 109.48 163.035 109.633 162.955 109.86C162.889 110.087 162.855 110.453 162.855 110.96V119.12C162.855 119.533 162.889 119.84 162.955 120.04C163.035 120.24 163.162 120.373 163.335 120.44C163.509 120.507 163.769 120.54 164.115 120.54H164.895C165.775 120.54 166.515 120.227 167.115 119.6C167.715 118.96 168.122 117.933 168.335 116.52H168.795C168.755 116.96 168.735 117.507 168.735 118.16C168.735 118.987 168.782 119.933 168.875 121C168.009 120.96 166.549 120.94 164.495 120.94C161.749 120.94 159.682 120.96 158.295 121V120.6C158.749 120.573 159.075 120.52 159.275 120.44C159.475 120.36 159.609 120.207 159.675 119.98C159.755 119.753 159.795 119.387 159.795 118.88V110.96C159.795 110.453 159.755 110.087 159.675 109.86C159.609 109.633 159.469 109.48 159.255 109.4C159.055 109.32 158.735 109.267 158.295 109.24V108.84C158.975 108.88 160.029 108.9 161.455 108.9C162.709 108.9 163.675 108.88 164.355 108.84V109.24ZM180.513 118.4C180.513 119.16 180.559 120.027 180.653 121C179.786 120.96 178.326 120.94 176.273 120.94C173.526 120.94 171.459 120.96 170.073 121V120.6C170.526 120.573 170.853 120.52 171.053 120.44C171.253 120.36 171.386 120.207 171.453 119.98C171.533 119.753 171.573 119.387 171.573 118.88V110.96C171.573 110.453 171.533 110.087 171.453 109.86C171.386 109.633 171.246 109.48 171.033 109.4C170.833 109.32 170.513 109.267 170.073 109.24V108.84C171.459 108.88 173.526 108.9 176.273 108.9C178.139 108.9 179.466 108.88 180.253 108.84C180.159 109.733 180.113 110.533 180.113 111.24C180.113 111.76 180.133 112.173 180.173 112.48H179.713C179.513 111.333 179.166 110.52 178.673 110.04C178.179 109.547 177.499 109.3 176.633 109.3H175.893C175.546 109.3 175.286 109.333 175.113 109.4C174.939 109.453 174.813 109.573 174.733 109.76C174.666 109.933 174.633 110.213 174.633 110.6V114.68H175.573C176.186 114.68 176.646 114.467 176.953 114.04C177.273 113.6 177.486 113.093 177.593 112.52H178.053C178.013 112.973 177.993 113.493 177.993 114.08V114.88C177.993 115.48 178.033 116.267 178.113 117.24H177.653C177.559 116.613 177.346 116.1 177.013 115.7C176.693 115.287 176.213 115.08 175.573 115.08H174.633V119.24C174.633 119.627 174.666 119.913 174.733 120.1C174.813 120.273 174.939 120.393 175.113 120.46C175.286 120.513 175.546 120.54 175.893 120.54H176.753C177.699 120.54 178.439 120.267 178.973 119.72C179.519 119.173 179.899 118.253 180.113 116.96H180.573C180.533 117.333 180.513 117.813 180.513 118.4ZM193.02 119.32C193.407 120.147 193.827 120.573 194.28 120.6V121C193.64 120.96 192.767 120.94 191.66 120.94C190.233 120.94 189.18 120.96 188.5 121V120.6C188.94 120.573 189.267 120.507 189.48 120.4C189.693 120.28 189.8 120.087 189.8 119.82C189.8 119.58 189.713 119.28 189.54 118.92L188.54 116.64H184.34L184.1 117.18C183.727 118.06 183.54 118.747 183.54 119.24C183.54 119.693 183.687 120.027 183.98 120.24C184.273 120.453 184.707 120.573 185.28 120.6V121C184.52 120.96 183.753 120.94 182.98 120.94C182.26 120.94 181.72 120.96 181.36 121V120.6C181.68 120.533 181.973 120.333 182.24 120C182.52 119.653 182.813 119.14 183.12 118.46L187.34 108.8C187.447 108.813 187.6 108.82 187.8 108.82C188.013 108.82 188.167 108.813 188.26 108.8L193.02 119.32ZM188.36 116.24L186.44 111.86L184.52 116.24H188.36ZM200.859 108.84C203.192 108.84 204.939 109.347 206.099 110.36C207.259 111.36 207.839 112.827 207.839 114.76C207.839 116.013 207.559 117.113 206.999 118.06C206.439 118.993 205.619 119.72 204.539 120.24C203.459 120.747 202.172 121 200.679 121L199.399 120.98C198.546 120.953 197.919 120.94 197.519 120.94C196.332 120.94 195.426 120.96 194.799 121V120.6C195.252 120.573 195.579 120.52 195.779 120.44C195.979 120.36 196.112 120.207 196.179 119.98C196.259 119.753 196.299 119.387 196.299 118.88V110.96C196.299 110.453 196.259 110.087 196.179 109.86C196.112 109.633 195.979 109.48 195.779 109.4C195.579 109.32 195.252 109.267 194.799 109.24V108.84C195.306 108.88 196.019 108.9 196.939 108.9L198.859 108.88C199.846 108.853 200.512 108.84 200.859 108.84ZM200.599 109.2C200.252 109.2 199.992 109.247 199.819 109.34C199.646 109.433 199.526 109.6 199.459 109.84C199.392 110.08 199.359 110.44 199.359 110.92V118.92C199.359 119.4 199.392 119.76 199.459 120C199.526 120.24 199.646 120.407 199.819 120.5C199.992 120.593 200.259 120.64 200.619 120.64C201.646 120.64 202.452 120.427 203.039 120C203.626 119.56 204.039 118.92 204.279 118.08C204.519 117.24 204.639 116.16 204.639 114.84C204.639 112.893 204.332 111.467 203.719 110.56C203.106 109.653 202.066 109.2 200.599 109.2ZM63.2375 135.9C63.9042 135.9 64.4175 135.88 64.7775 135.84V136.24C64.5108 136.36 64.2375 136.587 63.9575 136.92C63.6908 137.24 63.3708 137.727 62.9975 138.38L60.7175 142.58V145.76C60.7175 146.293 60.7642 146.687 60.8575 146.94C60.9508 147.18 61.1242 147.347 61.3775 147.44C61.6308 147.52 62.0308 147.573 62.5775 147.6V148C61.8842 147.96 60.7375 147.94 59.1375 147.94C57.5108 147.94 56.3975 147.96 55.7975 148V147.6C56.3442 147.573 56.7442 147.52 56.9975 147.44C57.2508 147.347 57.4242 147.18 57.5175 146.94C57.6108 146.687 57.6575 146.293 57.6575 145.76V143.6L54.0775 137.38C53.8508 136.993 53.6508 136.72 53.4775 136.56C53.3042 136.4 53.1175 136.3 52.9175 136.26V135.84C53.7442 135.907 54.5308 135.94 55.2775 135.94C56.3308 135.94 57.5042 135.907 58.7975 135.84V136.26C58.3975 136.26 58.0842 136.3 57.8575 136.38C57.6308 136.447 57.5175 136.587 57.5175 136.8C57.5175 136.973 57.5908 137.18 57.7375 137.42L60.4575 142.16L61.7375 139.82C62.2442 138.887 62.4975 138.12 62.4975 137.52C62.4975 136.707 61.9975 136.28 60.9975 136.24V135.84C61.8108 135.88 62.5575 135.9 63.2375 135.9ZM71.9242 135.56C73.2709 135.56 74.4509 135.807 75.4642 136.3C76.4776 136.78 77.2642 137.493 77.8242 138.44C78.3842 139.373 78.6642 140.493 78.6642 141.8C78.6642 143.08 78.3776 144.213 77.8042 145.2C77.2309 146.173 76.4309 146.933 75.4042 147.48C74.3776 148.013 73.2109 148.28 71.9042 148.28C70.5576 148.28 69.3776 148.04 68.3642 147.56C67.3509 147.067 66.5642 146.353 66.0042 145.42C65.4442 144.473 65.1642 143.347 65.1642 142.04C65.1642 140.76 65.4509 139.633 66.0242 138.66C66.5976 137.673 67.3976 136.913 68.4242 136.38C69.4509 135.833 70.6176 135.56 71.9242 135.56ZM71.8442 135.92C71.1509 135.92 70.5376 136.18 70.0042 136.7C69.4842 137.207 69.0776 137.92 68.7842 138.84C68.5042 139.747 68.3642 140.787 68.3642 141.96C68.3642 143.147 68.5242 144.193 68.8442 145.1C69.1642 146.007 69.5976 146.707 70.1442 147.2C70.7042 147.68 71.3176 147.92 71.9842 147.92C72.6776 147.92 73.2842 147.667 73.8042 147.16C74.3376 146.64 74.7442 145.927 75.0242 145.02C75.3176 144.1 75.4642 143.053 75.4642 141.88C75.4642 140.693 75.3042 139.647 74.9842 138.74C74.6642 137.833 74.2242 137.14 73.6642 136.66C73.1176 136.167 72.5109 135.92 71.8442 135.92ZM92.4823 136.24C92.0157 136.307 91.669 136.42 91.4423 136.58C91.2157 136.74 91.0623 136.993 90.9823 137.34C90.9023 137.687 90.8623 138.2 90.8623 138.88V142.58C90.8623 143.5 90.7957 144.287 90.6623 144.94C90.5423 145.58 90.3357 146.14 90.0423 146.62C89.7223 147.127 89.2423 147.533 88.6023 147.84C87.9757 148.133 87.2623 148.28 86.4623 148.28C84.9557 148.28 83.7823 147.987 82.9423 147.4C82.4757 147.053 82.1223 146.68 81.8823 146.28C81.6423 145.88 81.469 145.4 81.3623 144.84C81.269 144.267 81.2223 143.533 81.2223 142.64V137.96C81.2223 137.453 81.1823 137.087 81.1023 136.86C81.0357 136.633 80.8957 136.48 80.6823 136.4C80.4823 136.32 80.1623 136.267 79.7223 136.24V135.84C80.389 135.88 81.4023 135.9 82.7623 135.9C84.0557 135.9 85.0623 135.88 85.7823 135.84V136.24C85.329 136.267 85.0023 136.32 84.8023 136.4C84.6023 136.48 84.4623 136.633 84.3823 136.86C84.3157 137.087 84.2823 137.453 84.2823 137.96V142.98C84.2823 143.94 84.3423 144.733 84.4623 145.36C84.5957 145.987 84.869 146.493 85.2823 146.88C85.6957 147.267 86.309 147.46 87.1223 147.46C88.3357 147.46 89.1823 147.053 89.6623 146.24C90.1557 145.413 90.4023 144.267 90.4023 142.8V139.12C90.4023 138.347 90.3557 137.773 90.2623 137.4C90.169 137.027 89.989 136.76 89.7223 136.6C89.4557 136.427 89.0357 136.307 88.4623 136.24V135.84C88.9823 135.88 89.7023 135.9 90.6223 135.9C91.4223 135.9 92.0423 135.88 92.4823 135.84V136.24ZM108.147 146.32C108.534 147.147 108.954 147.573 109.407 147.6V148C108.767 147.96 107.894 147.94 106.787 147.94C105.36 147.94 104.307 147.96 103.627 148V147.6C104.067 147.573 104.394 147.507 104.607 147.4C104.82 147.28 104.927 147.087 104.927 146.82C104.927 146.58 104.84 146.28 104.667 145.92L103.667 143.64H99.467L99.227 144.18C98.8537 145.06 98.667 145.747 98.667 146.24C98.667 146.693 98.8137 147.027 99.107 147.24C99.4004 147.453 99.8337 147.573 100.407 147.6V148C99.647 147.96 98.8804 147.94 98.107 147.94C97.387 147.94 96.847 147.96 96.487 148V147.6C96.807 147.533 97.1004 147.333 97.367 147C97.647 146.653 97.9404 146.14 98.247 145.46L102.467 135.8C102.574 135.813 102.727 135.82 102.927 135.82C103.14 135.82 103.294 135.813 103.387 135.8L108.147 146.32ZM103.487 143.24L101.567 138.86L99.647 143.24H103.487ZM128.19 136.24C127.737 136.267 127.41 136.32 127.21 136.4C127.01 136.48 126.87 136.633 126.79 136.86C126.723 137.087 126.69 137.453 126.69 137.96V145.88C126.69 146.387 126.723 146.753 126.79 146.98C126.87 147.207 127.01 147.36 127.21 147.44C127.423 147.52 127.75 147.573 128.19 147.6V148C127.577 147.96 126.603 147.94 125.27 147.94C123.923 147.94 122.877 147.96 122.13 148V147.6C122.583 147.573 122.91 147.52 123.11 147.44C123.31 147.36 123.443 147.207 123.51 146.98C123.59 146.753 123.63 146.387 123.63 145.88V142H118.49V145.88C118.49 146.387 118.523 146.753 118.59 146.98C118.67 147.207 118.81 147.36 119.01 147.44C119.223 147.52 119.55 147.573 119.99 147.6V148C119.257 147.96 118.21 147.94 116.85 147.94C115.543 147.94 114.57 147.96 113.93 148V147.6C114.383 147.573 114.71 147.52 114.91 147.44C115.11 147.36 115.243 147.207 115.31 146.98C115.39 146.753 115.43 146.387 115.43 145.88V137.96C115.43 137.453 115.39 137.087 115.31 136.86C115.243 136.633 115.103 136.48 114.89 136.4C114.69 136.32 114.37 136.267 113.93 136.24V135.84C114.57 135.88 115.543 135.9 116.85 135.9C118.21 135.9 119.257 135.88 119.99 135.84V136.24C119.537 136.267 119.21 136.32 119.01 136.4C118.81 136.48 118.67 136.633 118.59 136.86C118.523 137.087 118.49 137.453 118.49 137.96V141.6H123.63V137.96C123.63 137.453 123.59 137.087 123.51 136.86C123.443 136.633 123.303 136.48 123.09 136.4C122.89 136.32 122.57 136.267 122.13 136.24V135.84C122.877 135.88 123.923 135.9 125.27 135.9C126.603 135.9 127.577 135.88 128.19 135.84V136.24ZM135.615 136.24C135.162 136.267 134.835 136.32 134.635 136.4C134.435 136.48 134.295 136.633 134.215 136.86C134.148 137.087 134.115 137.453 134.115 137.96V145.88C134.115 146.387 134.148 146.753 134.215 146.98C134.295 147.207 134.435 147.36 134.635 147.44C134.835 147.52 135.162 147.573 135.615 147.6V148C134.935 147.96 133.948 147.94 132.655 147.94C131.255 147.94 130.222 147.96 129.555 148V147.6C130.008 147.573 130.335 147.52 130.535 147.44C130.735 147.36 130.868 147.207 130.935 146.98C131.015 146.753 131.055 146.387 131.055 145.88V137.96C131.055 137.453 131.015 137.087 130.935 136.86C130.868 136.633 130.728 136.48 130.515 136.4C130.315 136.32 129.995 136.267 129.555 136.24V135.84C130.208 135.88 131.242 135.9 132.655 135.9C133.948 135.9 134.935 135.88 135.615 135.84V136.24ZM143.901 135.56C144.701 135.56 145.341 135.667 145.821 135.88C146.301 136.093 146.834 136.42 147.421 136.86C147.594 136.993 147.728 137.06 147.821 137.06C148.074 137.06 148.241 136.653 148.321 135.84H148.781C148.728 136.6 148.701 137.933 148.701 139.84H148.241C148.028 138.8 147.694 138.013 147.241 137.48C146.828 137.027 146.408 136.68 145.981 136.44C145.568 136.2 145.061 136.08 144.461 136.08C143.594 136.08 142.834 136.32 142.181 136.8C141.541 137.28 141.048 137.967 140.701 138.86C140.354 139.74 140.181 140.767 140.181 141.94C140.181 143.98 140.514 145.48 141.181 146.44C141.848 147.4 142.841 147.88 144.161 147.88C144.614 147.88 144.994 147.787 145.301 147.6C145.581 147.427 145.721 147.14 145.721 146.74V144.88C145.721 144.32 145.668 143.913 145.561 143.66C145.468 143.407 145.294 143.233 145.041 143.14C144.788 143.047 144.381 142.987 143.821 142.96V142.56C144.688 142.6 145.788 142.62 147.121 142.62C148.254 142.62 149.108 142.6 149.681 142.56V142.96C149.401 142.987 149.201 143.04 149.081 143.12C148.961 143.2 148.881 143.353 148.841 143.58C148.801 143.793 148.781 144.16 148.781 144.68V148H148.381C148.328 147.507 148.188 147.26 147.961 147.26C147.748 147.26 147.414 147.38 146.961 147.62C145.961 148.06 144.934 148.28 143.881 148.28C141.708 148.28 140.014 147.747 138.801 146.68C137.588 145.6 136.981 144.093 136.981 142.16C136.981 140.827 137.274 139.667 137.861 138.68C138.448 137.68 139.261 136.913 140.301 136.38C141.354 135.833 142.554 135.56 143.901 135.56ZM165.085 136.24C164.631 136.267 164.305 136.32 164.105 136.4C163.905 136.48 163.765 136.633 163.685 136.86C163.618 137.087 163.585 137.453 163.585 137.96V145.88C163.585 146.387 163.618 146.753 163.685 146.98C163.765 147.207 163.905 147.36 164.105 147.44C164.318 147.52 164.645 147.573 165.085 147.6V148C164.471 147.96 163.498 147.94 162.165 147.94C160.818 147.94 159.771 147.96 159.025 148V147.6C159.478 147.573 159.805 147.52 160.005 147.44C160.205 147.36 160.338 147.207 160.405 146.98C160.485 146.753 160.525 146.387 160.525 145.88V142H155.385V145.88C155.385 146.387 155.418 146.753 155.485 146.98C155.565 147.207 155.705 147.36 155.905 147.44C156.118 147.52 156.445 147.573 156.885 147.6V148C156.151 147.96 155.105 147.94 153.745 147.94C152.438 147.94 151.465 147.96 150.825 148V147.6C151.278 147.573 151.605 147.52 151.805 147.44C152.005 147.36 152.138 147.207 152.205 146.98C152.285 146.753 152.325 146.387 152.325 145.88V137.96C152.325 137.453 152.285 137.087 152.205 136.86C152.138 136.633 151.998 136.48 151.785 136.4C151.585 136.32 151.265 136.267 150.825 136.24V135.84C151.465 135.88 152.438 135.9 153.745 135.9C155.105 135.9 156.151 135.88 156.885 135.84V136.24C156.431 136.267 156.105 136.32 155.905 136.4C155.705 136.48 155.565 136.633 155.485 136.86C155.418 137.087 155.385 137.453 155.385 137.96V141.6H160.525V137.96C160.525 137.453 160.485 137.087 160.405 136.86C160.338 136.633 160.198 136.48 159.985 136.4C159.785 136.32 159.465 136.267 159.025 136.24V135.84C159.771 135.88 160.818 135.9 162.165 135.9C163.498 135.9 164.471 135.88 165.085 135.84V136.24ZM176.89 145.4C176.89 146.16 176.936 147.027 177.03 148C176.163 147.96 174.703 147.94 172.65 147.94C169.903 147.94 167.836 147.96 166.45 148V147.6C166.903 147.573 167.23 147.52 167.43 147.44C167.63 147.36 167.763 147.207 167.83 146.98C167.91 146.753 167.95 146.387 167.95 145.88V137.96C167.95 137.453 167.91 137.087 167.83 136.86C167.763 136.633 167.623 136.48 167.41 136.4C167.21 136.32 166.89 136.267 166.45 136.24V135.84C167.836 135.88 169.903 135.9 172.65 135.9C174.516 135.9 175.843 135.88 176.63 135.84C176.536 136.733 176.49 137.533 176.49 138.24C176.49 138.76 176.51 139.173 176.55 139.48H176.09C175.89 138.333 175.543 137.52 175.05 137.04C174.556 136.547 173.876 136.3 173.01 136.3H172.27C171.923 136.3 171.663 136.333 171.49 136.4C171.316 136.453 171.19 136.573 171.11 136.76C171.043 136.933 171.01 137.213 171.01 137.6V141.68H171.95C172.563 141.68 173.023 141.467 173.33 141.04C173.65 140.6 173.863 140.093 173.97 139.52H174.43C174.39 139.973 174.37 140.493 174.37 141.08V141.88C174.37 142.48 174.41 143.267 174.49 144.24H174.03C173.936 143.613 173.723 143.1 173.39 142.7C173.07 142.287 172.59 142.08 171.95 142.08H171.01V146.24C171.01 146.627 171.043 146.913 171.11 147.1C171.19 147.273 171.316 147.393 171.49 147.46C171.663 147.513 171.923 147.54 172.27 147.54H173.13C174.076 147.54 174.816 147.267 175.35 146.72C175.896 146.173 176.276 145.253 176.49 143.96H176.95C176.91 144.333 176.89 144.813 176.89 145.4ZM191.577 147.16C191.257 147.533 190.897 147.813 190.497 148C190.097 148.187 189.597 148.28 188.997 148.28C188.237 148.28 187.65 148.133 187.237 147.84C186.824 147.547 186.557 147.153 186.437 146.66L185.857 144.3C185.71 143.553 185.484 143.06 185.177 142.82C184.884 142.567 184.444 142.44 183.857 142.44H183.197V145.88C183.197 146.387 183.23 146.753 183.297 146.98C183.377 147.207 183.517 147.36 183.717 147.44C183.93 147.52 184.257 147.573 184.697 147.6V148C183.937 147.96 182.85 147.94 181.437 147.94C180.197 147.94 179.264 147.96 178.637 148V147.6C179.09 147.573 179.417 147.52 179.617 147.44C179.817 147.36 179.95 147.207 180.017 146.98C180.097 146.753 180.137 146.387 180.137 145.88V137.96C180.137 137.453 180.097 137.087 180.017 136.86C179.95 136.633 179.817 136.48 179.617 136.4C179.417 136.32 179.09 136.267 178.637 136.24V135.84C179.264 135.88 180.157 135.9 181.317 135.9L183.597 135.88C183.864 135.867 184.164 135.86 184.497 135.86C186.284 135.86 187.617 136.133 188.497 136.68C189.39 137.213 189.837 137.96 189.837 138.92C189.837 139.747 189.484 140.473 188.777 141.1C188.07 141.727 186.89 142.127 185.237 142.3C185.424 142.3 185.617 142.32 185.817 142.36C186.777 142.467 187.53 142.68 188.077 143C188.637 143.32 189.004 143.827 189.177 144.52L189.597 146.3C189.69 146.673 189.804 146.94 189.937 147.1C190.07 147.26 190.237 147.34 190.437 147.34C190.717 147.34 191.004 147.193 191.297 146.9L191.577 147.16ZM184.237 136.24C183.944 136.24 183.724 136.287 183.577 136.38C183.43 136.473 183.33 136.64 183.277 136.88C183.224 137.12 183.197 137.48 183.197 137.96V142.04H184.057C185.044 142.04 185.717 141.787 186.077 141.28C186.45 140.773 186.637 140.06 186.637 139.14C186.637 138.167 186.45 137.44 186.077 136.96C185.717 136.48 185.104 136.24 184.237 136.24ZM98.5545 163.24C98.1011 163.267 97.7745 163.32 97.5745 163.4C97.3745 163.48 97.2345 163.633 97.1545 163.86C97.0878 164.087 97.0545 164.453 97.0545 164.96V173.12C97.0545 173.533 97.0878 173.84 97.1545 174.04C97.2345 174.24 97.3611 174.373 97.5345 174.44C97.7078 174.507 97.9678 174.54 98.3145 174.54H99.0945C99.9745 174.54 100.714 174.227 101.314 173.6C101.914 172.96 102.321 171.933 102.534 170.52H102.994C102.954 170.96 102.934 171.507 102.934 172.16C102.934 172.987 102.981 173.933 103.074 175C102.208 174.96 100.748 174.94 98.6945 174.94C95.9478 174.94 93.8811 174.96 92.4945 175V174.6C92.9478 174.573 93.2745 174.52 93.4745 174.44C93.6745 174.36 93.8078 174.207 93.8745 173.98C93.9545 173.753 93.9945 173.387 93.9945 172.88V164.96C93.9945 164.453 93.9545 164.087 93.8745 163.86C93.8078 163.633 93.6678 163.48 93.4545 163.4C93.2545 163.32 92.9345 163.267 92.4945 163.24V162.84C93.1745 162.88 94.2278 162.9 95.6545 162.9C96.9078 162.9 97.8745 162.88 98.5545 162.84V163.24ZM114.712 172.4C114.712 173.16 114.758 174.027 114.852 175C113.985 174.96 112.525 174.94 110.472 174.94C107.725 174.94 105.658 174.96 104.272 175V174.6C104.725 174.573 105.052 174.52 105.252 174.44C105.452 174.36 105.585 174.207 105.652 173.98C105.732 173.753 105.772 173.387 105.772 172.88V164.96C105.772 164.453 105.732 164.087 105.652 163.86C105.585 163.633 105.445 163.48 105.232 163.4C105.032 163.32 104.712 163.267 104.272 163.24V162.84C105.658 162.88 107.725 162.9 110.472 162.9C112.338 162.9 113.665 162.88 114.452 162.84C114.358 163.733 114.312 164.533 114.312 165.24C114.312 165.76 114.332 166.173 114.372 166.48H113.912C113.712 165.333 113.365 164.52 112.872 164.04C112.378 163.547 111.698 163.3 110.832 163.3H110.092C109.745 163.3 109.485 163.333 109.312 163.4C109.138 163.453 109.012 163.573 108.932 163.76C108.865 163.933 108.832 164.213 108.832 164.6V168.68H109.772C110.385 168.68 110.845 168.467 111.152 168.04C111.472 167.6 111.685 167.093 111.792 166.52H112.252C112.212 166.973 112.192 167.493 112.192 168.08V168.88C112.192 169.48 112.232 170.267 112.312 171.24H111.852C111.758 170.613 111.545 170.1 111.212 169.7C110.892 169.287 110.412 169.08 109.772 169.08H108.832V173.24C108.832 173.627 108.865 173.913 108.932 174.1C109.012 174.273 109.138 174.393 109.312 174.46C109.485 174.513 109.745 174.54 110.092 174.54H110.952C111.898 174.54 112.638 174.267 113.172 173.72C113.718 173.173 114.098 172.253 114.312 170.96H114.772C114.732 171.333 114.712 171.813 114.712 172.4ZM126.902 162.9C127.488 162.9 127.975 162.88 128.362 162.84V163.24C128.015 163.373 127.695 163.633 127.402 164.02C127.108 164.393 126.802 164.953 126.482 165.7L122.562 175.04C122.455 175.027 122.302 175.02 122.102 175.02C121.902 175.02 121.748 175.027 121.642 175.04L116.702 164.52C116.315 163.693 115.895 163.267 115.442 163.24V162.84C116.068 162.88 116.942 162.9 118.062 162.9C119.488 162.9 120.542 162.88 121.222 162.84V163.24C120.782 163.267 120.455 163.34 120.242 163.46C120.028 163.567 119.922 163.747 119.922 164C119.922 164.253 120.008 164.56 120.182 164.92L123.402 171.92L125.422 167.22C125.848 166.193 126.062 165.373 126.062 164.76C126.062 163.787 125.522 163.28 124.442 163.24V162.84C125.202 162.88 126.022 162.9 126.902 162.9ZM139.341 172.4C139.341 173.16 139.387 174.027 139.481 175C138.614 174.96 137.154 174.94 135.101 174.94C132.354 174.94 130.287 174.96 128.901 175V174.6C129.354 174.573 129.681 174.52 129.881 174.44C130.081 174.36 130.214 174.207 130.281 173.98C130.361 173.753 130.401 173.387 130.401 172.88V164.96C130.401 164.453 130.361 164.087 130.281 163.86C130.214 163.633 130.074 163.48 129.861 163.4C129.661 163.32 129.341 163.267 128.901 163.24V162.84C130.287 162.88 132.354 162.9 135.101 162.9C136.967 162.9 138.294 162.88 139.081 162.84C138.987 163.733 138.941 164.533 138.941 165.24C138.941 165.76 138.961 166.173 139.001 166.48H138.541C138.341 165.333 137.994 164.52 137.501 164.04C137.007 163.547 136.327 163.3 135.461 163.3H134.721C134.374 163.3 134.114 163.333 133.941 163.4C133.767 163.453 133.641 163.573 133.561 163.76C133.494 163.933 133.461 164.213 133.461 164.6V168.68H134.401C135.014 168.68 135.474 168.467 135.781 168.04C136.101 167.6 136.314 167.093 136.421 166.52H136.881C136.841 166.973 136.821 167.493 136.821 168.08V168.88C136.821 169.48 136.861 170.267 136.941 171.24H136.481C136.387 170.613 136.174 170.1 135.841 169.7C135.521 169.287 135.041 169.08 134.401 169.08H133.461V173.24C133.461 173.627 133.494 173.913 133.561 174.1C133.641 174.273 133.767 174.393 133.941 174.46C134.114 174.513 134.374 174.54 134.721 174.54H135.581C136.527 174.54 137.267 174.267 137.801 173.72C138.347 173.173 138.727 172.253 138.941 170.96H139.401C139.361 171.333 139.341 171.813 139.341 172.4ZM147.148 163.24C146.695 163.267 146.368 163.32 146.168 163.4C145.968 163.48 145.828 163.633 145.748 163.86C145.682 164.087 145.648 164.453 145.648 164.96V173.12C145.648 173.533 145.682 173.84 145.748 174.04C145.828 174.24 145.955 174.373 146.128 174.44C146.302 174.507 146.562 174.54 146.908 174.54H147.688C148.568 174.54 149.308 174.227 149.908 173.6C150.508 172.96 150.915 171.933 151.128 170.52H151.588C151.548 170.96 151.528 171.507 151.528 172.16C151.528 172.987 151.575 173.933 151.668 175C150.802 174.96 149.342 174.94 147.288 174.94C144.542 174.94 142.475 174.96 141.088 175V174.6C141.542 174.573 141.868 174.52 142.068 174.44C142.268 174.36 142.402 174.207 142.468 173.98C142.548 173.753 142.588 173.387 142.588 172.88V164.96C142.588 164.453 142.548 164.087 142.468 163.86C142.402 163.633 142.262 163.48 142.048 163.4C141.848 163.32 141.528 163.267 141.088 163.24V162.84C141.768 162.88 142.822 162.9 144.248 162.9C145.502 162.9 146.468 162.88 147.148 162.84V163.24ZM68.9244 214.56C69.7244 214.56 70.4044 214.673 70.9644 214.9C71.5244 215.127 72.071 215.447 72.6044 215.86C72.751 215.98 72.8777 216.04 72.9844 216.04C73.251 216.04 73.4244 215.64 73.5044 214.84H73.9644C73.911 215.747 73.8844 217.36 73.8844 219.68H73.4244C73.3044 218.693 73.1444 217.94 72.9444 217.42C72.7444 216.9 72.4044 216.447 71.9244 216.06C71.591 215.74 71.2044 215.5 70.7644 215.34C70.3244 215.167 69.8644 215.08 69.3844 215.08C68.0377 215.08 67.0377 215.74 66.3844 217.06C65.731 218.367 65.4044 220 65.4044 221.96C65.4044 223.907 65.7444 225.533 66.4244 226.84C67.1044 228.147 68.1177 228.8 69.4644 228.8C69.9177 228.8 70.3644 228.72 70.8044 228.56C71.2577 228.387 71.6377 228.14 71.9444 227.82C72.4377 227.447 72.7777 226.98 72.9644 226.42C73.1644 225.86 73.3177 225.04 73.4244 223.96H73.8844C73.8844 226.373 73.911 228.053 73.9644 229H73.5044C73.4644 228.573 73.4044 228.273 73.3244 228.1C73.2577 227.913 73.1577 227.82 73.0244 227.82C72.9177 227.82 72.7777 227.873 72.6044 227.98C72.0044 228.407 71.431 228.733 70.8844 228.96C70.3377 229.173 69.6777 229.28 68.9044 229.28C67.491 229.28 66.251 228.993 65.1844 228.42C64.131 227.847 63.311 227.02 62.7244 225.94C62.1377 224.847 61.8444 223.547 61.8444 222.04C61.8444 220.573 62.1444 219.273 62.7444 218.14C63.3444 217.007 64.1777 216.127 65.2444 215.5C66.3244 214.873 67.551 214.56 68.9244 214.56ZM82.6859 216.56C84.0326 216.56 85.2126 216.807 86.2259 217.3C87.2393 217.78 88.0259 218.493 88.5859 219.44C89.1459 220.373 89.4259 221.493 89.4259 222.8C89.4259 224.08 89.1393 225.213 88.5659 226.2C87.9926 227.173 87.1926 227.933 86.1659 228.48C85.1393 229.013 83.9726 229.28 82.6659 229.28C81.3193 229.28 80.1393 229.04 79.1259 228.56C78.1126 228.067 77.3259 227.353 76.7659 226.42C76.2059 225.473 75.9259 224.347 75.9259 223.04C75.9259 221.76 76.2126 220.633 76.7859 219.66C77.3593 218.673 78.1593 217.913 79.1859 217.38C80.2126 216.833 81.3793 216.56 82.6859 216.56ZM82.6059 216.92C81.9126 216.92 81.2993 217.18 80.7659 217.7C80.2459 218.207 79.8393 218.92 79.5459 219.84C79.2659 220.747 79.1259 221.787 79.1259 222.96C79.1259 224.147 79.2859 225.193 79.6059 226.1C79.9259 227.007 80.3593 227.707 80.9059 228.2C81.4659 228.68 82.0793 228.92 82.7459 228.92C83.4393 228.92 84.0459 228.667 84.5659 228.16C85.0993 227.64 85.5059 226.927 85.7859 226.02C86.0793 225.1 86.2259 224.053 86.2259 222.88C86.2259 221.693 86.0659 220.647 85.7459 219.74C85.4259 218.833 84.9859 218.14 84.4259 217.66C83.8793 217.167 83.2726 216.92 82.6059 216.92ZM103.306 217.24C102.866 217.307 102.539 217.407 102.326 217.54C102.126 217.673 101.986 217.887 101.906 218.18C101.839 218.473 101.806 218.92 101.806 219.52V229.04L101.266 229.02L100.746 229.04L92.7459 219.1V226.32C92.7459 226.907 92.7993 227.353 92.9059 227.66C93.0126 227.953 93.2059 228.167 93.4859 228.3C93.7659 228.433 94.2059 228.533 94.8059 228.6V229C94.2059 228.96 93.4459 228.94 92.5259 228.94C91.7926 228.94 91.2126 228.96 90.7859 229V228.6C91.2259 228.533 91.5459 228.433 91.7459 228.3C91.9593 228.167 92.0993 227.953 92.1659 227.66C92.2459 227.367 92.2859 226.92 92.2859 226.32V218.96C92.2859 218.453 92.2459 218.087 92.1659 217.86C92.0993 217.633 91.9593 217.48 91.7459 217.4C91.5459 217.32 91.2259 217.267 90.7859 217.24V216.84C91.2126 216.88 91.7926 216.9 92.5259 216.9C93.4726 216.9 94.2859 216.88 94.9659 216.84L101.346 224.76V219.52C101.346 218.933 101.293 218.493 101.186 218.2C101.079 217.893 100.879 217.673 100.586 217.54C100.306 217.407 99.8726 217.307 99.2859 217.24V216.84C99.8726 216.88 100.633 216.9 101.566 216.9C102.313 216.9 102.893 216.88 103.306 216.84V217.24ZM116.315 216.84C116.221 217.853 116.175 218.76 116.175 219.56C116.175 220.307 116.195 220.893 116.235 221.32H115.775C115.588 220.307 115.361 219.513 115.095 218.94C114.841 218.367 114.508 217.953 114.095 217.7C113.695 217.433 113.175 217.3 112.535 217.3H111.915V226.68C111.915 227.24 111.968 227.647 112.075 227.9C112.181 228.153 112.368 228.327 112.635 228.42C112.901 228.513 113.335 228.573 113.935 228.6V229C113.215 228.96 112.015 228.94 110.335 228.94C108.641 228.94 107.475 228.96 106.835 229V228.6C107.435 228.573 107.868 228.513 108.135 228.42C108.401 228.327 108.588 228.153 108.695 227.9C108.801 227.647 108.855 227.24 108.855 226.68V217.3H108.235C107.595 217.3 107.068 217.433 106.655 217.7C106.255 217.953 105.921 218.367 105.655 218.94C105.401 219.513 105.181 220.307 104.995 221.32H104.535C104.575 220.893 104.595 220.307 104.595 219.56C104.595 218.76 104.548 217.853 104.455 216.84C105.615 216.88 107.575 216.9 110.335 216.9C113.148 216.9 115.141 216.88 116.315 216.84ZM127.053 227.32C127.44 228.147 127.86 228.573 128.313 228.6V229C127.673 228.96 126.8 228.94 125.693 228.94C124.267 228.94 123.213 228.96 122.533 229V228.6C122.973 228.573 123.3 228.507 123.513 228.4C123.727 228.28 123.833 228.087 123.833 227.82C123.833 227.58 123.747 227.28 123.573 226.92L122.573 224.64H118.373L118.133 225.18C117.76 226.06 117.573 226.747 117.573 227.24C117.573 227.693 117.72 228.027 118.013 228.24C118.307 228.453 118.74 228.573 119.313 228.6V229C118.553 228.96 117.787 228.94 117.013 228.94C116.293 228.94 115.753 228.96 115.393 229V228.6C115.713 228.533 116.007 228.333 116.273 228C116.553 227.653 116.847 227.14 117.153 226.46L121.373 216.8C121.48 216.813 121.633 216.82 121.833 216.82C122.047 216.82 122.2 216.813 122.293 216.8L127.053 227.32ZM122.393 224.24L120.473 219.86L118.553 224.24H122.393ZM135.061 216.56C135.834 216.56 136.461 216.673 136.941 216.9C137.421 217.113 137.914 217.433 138.421 217.86C138.567 217.98 138.694 218.04 138.801 218.04C139.067 218.04 139.241 217.64 139.321 216.84H139.781C139.727 217.64 139.701 219.04 139.701 221.04H139.241C139.107 220.32 138.974 219.8 138.841 219.48C138.707 219.147 138.507 218.813 138.241 218.48C137.867 218.04 137.441 217.7 136.961 217.46C136.494 217.207 136.007 217.08 135.501 217.08C134.767 217.08 134.127 217.32 133.581 217.8C133.034 218.267 132.607 218.94 132.301 219.82C132.007 220.7 131.861 221.747 131.861 222.96C131.861 224.187 132.021 225.24 132.341 226.12C132.674 226.987 133.127 227.647 133.701 228.1C134.274 228.54 134.921 228.76 135.641 228.76C136.161 228.76 136.667 228.64 137.161 228.4C137.667 228.147 138.101 227.8 138.461 227.36C138.727 227.027 138.921 226.667 139.041 226.28C139.161 225.893 139.274 225.333 139.381 224.6H139.841C139.841 226.693 139.867 228.16 139.921 229H139.461C139.421 228.587 139.361 228.287 139.281 228.1C139.201 227.9 139.094 227.8 138.961 227.8C138.854 227.8 138.721 227.86 138.561 227.98C138.067 228.393 137.554 228.713 137.021 228.94C136.487 229.167 135.847 229.28 135.101 229.28C133.834 229.28 132.714 229.033 131.741 228.54C130.767 228.047 130.007 227.333 129.461 226.4C128.927 225.467 128.661 224.347 128.661 223.04C128.661 221.773 128.941 220.647 129.501 219.66C130.061 218.673 130.821 217.913 131.781 217.38C132.754 216.833 133.847 216.56 135.061 216.56ZM153.365 216.84C153.272 217.853 153.225 218.76 153.225 219.56C153.225 220.307 153.245 220.893 153.285 221.32H152.825C152.639 220.307 152.412 219.513 152.145 218.94C151.892 218.367 151.559 217.953 151.145 217.7C150.745 217.433 150.225 217.3 149.585 217.3H148.965V226.68C148.965 227.24 149.019 227.647 149.125 227.9C149.232 228.153 149.419 228.327 149.685 228.42C149.952 228.513 150.385 228.573 150.985 228.6V229C150.265 228.96 149.065 228.94 147.385 228.94C145.692 228.94 144.525 228.96 143.885 229V228.6C144.485 228.573 144.919 228.513 145.185 228.42C145.452 228.327 145.639 228.153 145.745 227.9C145.852 227.647 145.905 227.24 145.905 226.68V217.3H145.285C144.645 217.3 144.119 217.433 143.705 217.7C143.305 217.953 142.972 218.367 142.705 218.94C142.452 219.513 142.232 220.307 142.045 221.32H141.585C141.625 220.893 141.645 220.307 141.645 219.56C141.645 218.76 141.599 217.853 141.505 216.84C142.665 216.88 144.625 216.9 147.385 216.9C150.199 216.9 152.192 216.88 153.365 216.84ZM171.252 217.24C170.785 217.307 170.439 217.42 170.212 217.58C169.985 217.74 169.832 217.993 169.752 218.34C169.672 218.687 169.632 219.2 169.632 219.88V223.58C169.632 224.5 169.565 225.287 169.432 225.94C169.312 226.58 169.105 227.14 168.812 227.62C168.492 228.127 168.012 228.533 167.372 228.84C166.745 229.133 166.032 229.28 165.232 229.28C163.725 229.28 162.552 228.987 161.712 228.4C161.245 228.053 160.892 227.68 160.652 227.28C160.412 226.88 160.239 226.4 160.132 225.84C160.039 225.267 159.992 224.533 159.992 223.64V218.96C159.992 218.453 159.952 218.087 159.872 217.86C159.805 217.633 159.665 217.48 159.452 217.4C159.252 217.32 158.932 217.267 158.492 217.24V216.84C159.159 216.88 160.172 216.9 161.532 216.9C162.825 216.9 163.832 216.88 164.552 216.84V217.24C164.099 217.267 163.772 217.32 163.572 217.4C163.372 217.48 163.232 217.633 163.152 217.86C163.085 218.087 163.052 218.453 163.052 218.96V223.98C163.052 224.94 163.112 225.733 163.232 226.36C163.365 226.987 163.639 227.493 164.052 227.88C164.465 228.267 165.079 228.46 165.892 228.46C167.105 228.46 167.952 228.053 168.432 227.24C168.925 226.413 169.172 225.267 169.172 223.8V220.12C169.172 219.347 169.125 218.773 169.032 218.4C168.939 218.027 168.759 217.76 168.492 217.6C168.225 217.427 167.805 217.307 167.232 217.24V216.84C167.752 216.88 168.472 216.9 169.392 216.9C170.192 216.9 170.812 216.88 171.252 216.84V217.24ZM177.233 216.56C177.846 216.56 178.366 216.627 178.793 216.76C179.233 216.893 179.646 217.073 180.033 217.3C180.18 217.38 180.306 217.447 180.413 217.5C180.533 217.553 180.633 217.58 180.713 217.58C180.833 217.58 180.926 217.513 180.993 217.38C181.06 217.233 181.113 217.007 181.153 216.7H181.613C181.546 217.5 181.513 218.887 181.513 220.86H181.053C180.906 219.66 180.52 218.72 179.893 218.04C179.266 217.347 178.446 217 177.433 217C176.766 217 176.226 217.147 175.813 217.44C175.413 217.733 175.213 218.113 175.213 218.58C175.213 218.94 175.32 219.273 175.533 219.58C175.76 219.873 176.053 220.147 176.413 220.4C176.773 220.653 177.3 220.987 177.993 221.4L178.433 221.66C179.233 222.113 179.886 222.527 180.393 222.9C180.9 223.26 181.32 223.693 181.653 224.2C181.986 224.693 182.153 225.253 182.153 225.88C182.153 226.973 181.7 227.813 180.793 228.4C179.886 228.987 178.693 229.28 177.213 229.28C176.573 229.28 176.02 229.207 175.553 229.06C175.086 228.927 174.613 228.74 174.133 228.5C173.8 228.34 173.566 228.26 173.433 228.26C173.313 228.26 173.22 228.333 173.153 228.48C173.086 228.613 173.033 228.833 172.993 229.14H172.533C172.586 228.393 172.613 226.767 172.613 224.26H173.073C173.166 225.673 173.546 226.787 174.213 227.6C174.893 228.413 175.846 228.82 177.073 228.82C177.673 228.82 178.193 228.667 178.633 228.36C179.073 228.053 179.293 227.6 179.293 227C179.293 226.467 179.086 226.007 178.673 225.62C178.26 225.233 177.553 224.747 176.553 224.16C175.286 223.44 174.313 222.753 173.633 222.1C172.966 221.447 172.633 220.68 172.633 219.8C172.633 218.76 173.06 217.96 173.913 217.4C174.78 216.84 175.886 216.56 177.233 216.56Z" fill="white"/>
<line x1="19" y1="249.5" x2="227" y2="249.5" stroke="#FF8A1F"/>
<path d="M19 200.5H227" stroke="#FF8A1F"/>
</svg>
